<?xml version="1.0" encoding="UTF-8" standalone="no"?>
<!--part of the matt icon theme by sixsixfive released under CC0 (https://creativecommons.org/publicdomain/zero/1.0/) on openclipart-->
<svg xmlns="http://www.w3.org/2000/svg" xmlns:xlink="http://www.w3.org/1999/xlink" viewBox="0 0 128 128">
 <defs id="0">
  <linearGradient id="2">
   <stop id="b" stop-color="#eee"/>
   <stop offset="1" id="c" stop-color="#eee" stop-opacity="0.675"/>
  </linearGradient>
  <linearGradient id="3">
   <stop id="d"/>
   <stop offset="1" id="e" stop-opacity="0"/>
  </linearGradient>
  <linearGradient id="4">
   <stop id="f" stop-color="#eee"/>
   <stop offset="1" id="g" stop-color="#e1e1e1"/>
  </linearGradient>
  <linearGradient id="5">
   <stop id="h" stop-color="#ddd"/>
   <stop offset="1" id="i" stop-color="#ddd"/>
  </linearGradient>
  <linearGradient id="6">
   <stop id="j" stop-color="#2c72c7"/>
   <stop offset="1" id="k" stop-color="#2c72c7"/>
  </linearGradient>
  <radialGradient xlink:href="#4" gradientUnits="userSpaceOnUse" gradientTransform="matrix(1,0,0,1.2511719,0,-15.513788)" r="40" cy="34.491" cx="45.596" id="7"/>
  <radialGradient xlink:href="#4" gradientUnits="userSpaceOnUse" gradientTransform="matrix(1,0,0,0.62354463,0,7.9055627)" r="24.16" cy="21" cx="63.938" id="8"/>
  <filter id="9">
   <feGaussianBlur stdDeviation="0.46078" id="l"/>
  </filter>
  <filter id="A">
   <feGaussianBlur stdDeviation="0.44719" id="m"/>
  </filter>
  <radialGradient xlink:href="#4" gradientUnits="userSpaceOnUse" gradientTransform="matrix(1,0,0,0.90766551,0,5.3741561)" r="8.969" cy="67.17" cx="87.75" id="B"/>
  <filter id="C">
   <feGaussianBlur stdDeviation="0.3" id="n"/>
  </filter>
  <filter id="D">
   <feGaussianBlur stdDeviation="0.1546" id="o"/>
  </filter>
  <radialGradient xlink:href="#3" gradientUnits="userSpaceOnUse" gradientTransform="matrix(1,0,0,0.06567796,0,109.70458)" r="63.23" cy="117.42" cx="65.65" id="E"/>
  <radialGradient xlink:href="#2" gradientUnits="userSpaceOnUse" gradientTransform="matrix(1,0,0,0.39182283,0,31.036041)" r="9.172" cy="51.03" cx="87.77" id="F"/>
 </defs>
 <g id="1">
  <path id="G" d="m 128.88076,117.41624 a 63.234634,4.1531219 0 1 1 -126.4692686,0 63.234634,4.1531219 0 1 1 126.4692686,0 z" transform="matrix(0.97033898,0,0,1.3870968,0.07152729,-48.758816)" opacity="0.554" fill="url(#E)"/>
  <path d="M 63.95141,9.3483867 C 50.378618,9.9045601 36.537746,11.344632 23.79516,17.598387 l -15.9999998,6.90625 c -2.0344262,0.878502 -2.9722522,3.246824 -2.09375,5.28125 l 7.6562498,17.71875 c 0.878502,2.034426 3.215574,2.972252 5.25,2.09375 l 2.5625,-1.09375 0,63.843753 a 2.9018266,2.9018266 0 0 0 2.90625,2.90625 l 40,0 40,0 a 2.9018266,2.9018266 0 0 0 2.90625,-2.90625 l 0,-63.937503 2.71875,1.1875 c 2.03443,0.878502 4.3715,-0.05932 5.25,-2.09375 l 7.65625,-17.71875 c 0.8785,-2.034426 -0.0593,-4.402748 -2.09375,-5.28125 l -17.59375,-7.59375 c -0.21759,-0.100095 -0.43806,-0.183831 -0.65625,-0.28125 l -1.8125,-0.8125 c -0.2087,-0.08563 -0.41581,-0.166655 -0.625,-0.25 -0.03986,-0.01721 -0.08491,-0.01542 -0.125,-0.03125 -11.421772,-4.525104 -23.565173,-5.6984458 -35.5,-6.1875003 a 2.9018266,2.9018266 0 0 0 -0.25,0 z" id="H" fill="#bbb"/>
  <path id="I" d="M 62.46875,11.75 C 49.022205,12.301 35.644531,13.758506 23.5,19.71875 a 2.9521978,2.9521978 0 0 1 -0.15625,0.0625 l -16,6.90625 C 6.778871,26.931425 6.5676567,27.526745 6.8125,28.09375 l 7.65625,17.71875 c 0.254025,0.588269 0.797894,0.780455 1.375,0.53125 L 18.40625,45.25 A 2.9521978,2.9521978 0 0 1 22.5,47.96875 l 0,63.8125 39.96875,0 39.96875,0 0,-63.90625 a 2.9521978,2.9521978 0 0 1 4.125,-2.71875 l 2.6875,1.1875 c 0.0111,0.0048 0.0202,-0.0044 0.0312,0 0.56449,0.226975 1.0946,0.04573 1.34375,-0.53125 l 7.65625,-17.71875 c 0.24485,-0.567025 0.0336,-1.162319 -0.53125,-1.40625 l -17.59375,-7.59375 a 2.9521978,2.9521978 0 0 1 -0.0625,-0.03125 c -0.09767,-0.04493 -0.337111,-0.138758 -0.65625,-0.28125 L 97.71875,18 97.625,17.96875 c -0.144378,-0.05844 -0.298966,-0.08872 -0.46875,-0.15625 -0.0138,-0.0055 -0.01727,-0.02568 -0.03125,-0.03125 -0.0625,-0.0248 -0.04787,-7.92e-4 -0.125,-0.03125 -10.91813,-4.32557 -22.707566,-5.5155 -34.53125,-6 z" transform="translate(1.6076602,0.53588673)" fill="#eee"/>
  <path transform="matrix(0.97958254,0,0,0.97632609,1.3276676,1.7056996)" d="m 47.71875,2.625 c -2.950535,0 -5.64918,0.8991057 -7.71875,2.5 -2.06957,1.6008943 -3.53125,4.0166122 -3.53125,6.75 l 0,2.65625 a 2.4738001,2.4738001 0 0 0 0.375,1.3125 l 14.25,22.84375 a 2.4738001,2.4738001 0 0 0 2.09375,1.15625 l 0.28125,0 A 2.4738001,2.4738001 0 0 0 55.5,38.78125 L 63.9375,26.75 72.375,38.78125 a 2.4738001,2.4738001 0 0 0 2.03125,1.0625 l 0.28125,0 a 2.4738001,2.4738001 0 0 0 2.09375,-1.15625 l 14.25,-22.84375 a 2.4738001,2.4738001 0 0 0 0.375,-1.3125 l 0,-2.65625 c 0,-2.7402618 -1.454772,-5.1516365 -3.53125,-6.75 -2.076478,-1.5983635 -4.799465,-2.5 -7.75,-2.5 l -32.40625,0 z" id="J" filter="url(#9)"/>
  <path d="m 64.09101,100.66636 -0.0292,11.69952" id="K" fill="#bbb" stroke="#888" stroke-width="0.999"/>
  <path id="L" d="m 58.07641,30.660887 -2,61.65625 3.96875,5.875 3.96875,5.906253 4.03125,-5.875003 4.03125,-5.84375 0,-0.0625 -2,-61.65625 -12,0 z" filter="url(#A)"/>
  <path d="m 58.07641,30.660887 -2,61.65625 3.96875,5.875 3.96875,5.906253 4.03125,-5.875003 4.03125,-5.84375 0,-0.0625 -2,-61.65625 -12,0 z" id="M" fill="#323232"/>
  <path id="N" d="M 59.5,31.75 57.59375,91.3125 61.25,96.75 63.875,100.65625 66.5625,96.75 70.28125,91.34375 68.375,31.75 l -8.875,0 z" transform="translate(0.13891019,0.53588673)" fill="#555"/>
  <path id="O" d="m 75.891586,30.282454 a 11.269615,7.5606275 0 1 1 -22.53923,0 11.269615,7.5606275 0 1 1 22.53923,0 z" transform="translate(-0.54556091,0.53588673)" fill="#323232"/>
  <path id="P" d="m 64.625,25.53125 c -2.59921,0 -4.915903,0.751229 -6.40625,1.75 -1.490347,0.998771 -2.0625,2.053538 -2.0625,3 0,0.946462 0.572153,2.001229 2.0625,3 1.490347,0.998771 3.80704,1.75 6.40625,1.75 2.59921,0 4.915903,-0.751229 6.40625,-1.75 1.490347,-0.998771 2.0625,-2.053538 2.0625,-3 0,-0.946462 -0.572153,-2.001229 -2.0625,-3 -1.490347,-0.998771 -3.80704,-1.75 -6.40625,-1.75 z" transform="translate(-0.54556091,0.53588673)" fill="#555"/>
  <path id="Q" d="m 47.71875,2.625 c -2.950535,0 -5.64918,0.8991057 -7.71875,2.5 -2.06957,1.6008943 -3.53125,4.0166122 -3.53125,6.75 l 0,2.65625 a 2.4738001,2.4738001 0 0 0 0.375,1.3125 l 14.25,22.84375 a 2.4738001,2.4738001 0 0 0 2.09375,1.15625 l 0.28125,0 A 2.4738001,2.4738001 0 0 0 55.5,38.78125 L 63.9375,26.75 72.375,38.78125 a 2.4738001,2.4738001 0 0 0 2.03125,1.0625 l 0.28125,0 a 2.4738001,2.4738001 0 0 0 2.09375,-1.15625 l 14.25,-22.84375 a 2.4738001,2.4738001 0 0 0 0.375,-1.3125 l 0,-2.65625 c 0,-2.7402618 -1.454772,-5.1516365 -3.53125,-6.75 -2.076478,-1.5983635 -4.799465,-2.5 -7.75,-2.5 l -32.40625,0 z" transform="translate(0.13891019,0.53588673)" fill="#bbb"/>
  <path id="R" d="m 47.71875,5.9375 c -2.26011,0 -4.268947,0.7151933 -5.6875,1.8125 -1.418553,1.0973067 -2.25,2.548122 -2.25,4.125 l 0,2.40625 13.5625,21.78125 9.90625,-14.125 a 0.85600573,0.85600573 0 0 1 1.375,0 l 9.90625,14.125 13.5625,-21.78125 0,-2.40625 c 0,-1.5745 -0.823321,-3.0268176 -2.25,-4.125 C 84.417071,6.6518176 82.38511,5.9375 80.125,5.9375 l -32.40625,0 z" transform="translate(0.13891019,0.53588673)" fill="url(#8)"/>
  <rect y="10.128" x="47.19" height="9.527" width="33.779" id="S" fill="#eee" rx="4"/>
  <rect id="T" width="33.779" height="9.527" x="47.19" y="9.227" fill="#323232" rx="4"/>
  <path d="M 59.40625 37.6875 L 59.25 41.84375 L 68.875 46.34375 L 68.75 41.59375 L 61.3125 38.125 C 60.651452 38.012857 60.014961 37.874122 59.40625 37.6875 z M 59.09375 46.5 L 58.96875 51.125 L 69.1875 55.875 L 69.03125 51.15625 L 59.09375 46.5 z M 58.8125 55.78125 L 58.65625 60.375 L 69.5 65.40625 L 69.34375 60.6875 L 58.8125 55.78125 z M 58.53125 64.90625 L 58.375 69.53125 L 69.8125 74.875 L 69.65625 70.125 L 58.53125 64.90625 z M 58.21875 74.28125 L 58.0625 78.90625 L 70.09375 84.5 L 69.96875 79.75 L 58.21875 74.28125 z M 57.9375 83.46875 L 57.78125 88.0625 L 69.28125 93.40625 L 70.34375 91.875 L 70.25 89.21875 L 57.9375 83.46875 z M 58.53125 93.15625 L 61.3125 97.28125 L 63.09375 99.9375 L 64.375 100.53125 L 66.625 97.28125 L 66.8125 97 L 58.53125 93.15625 z " id="U" fill="#888"/>
  <rect y="49.25" x="78.955" height="19.18" width="20.816" id="V" filter="url(#C)" rx="4"/>
  <rect id="W" width="20.816" height="19.18" x="78.955" y="49.15" fill="#bbb" rx="4"/>
  <path id="X" d="m 81.34375,50.0625 c -1.449282,0 -2.5625,1.113218 -2.5625,2.5625 l 0,11.15625 c 0,1.449282 1.113218,2.5625 2.5625,2.5625 l 12.8125,0 c 1.449282,0 2.5625,-1.113218 2.5625,-2.5625 l 0,-11.15625 c 0,-1.449282 -1.113218,-2.5625 -2.5625,-2.5625 l -12.8125,0 z" transform="translate(1.6076602,0.53588673)" fill="url(#B)"/>
  <path id="Y" d="m 82.808725,46.725387 c -2.197444,0 -3.966505,1.512059 -3.966505,3.390268 l 0,2.25135 4.896155,2.383783 3.780575,1.854053 3.68761,0 3.780576,-1.854053 4.896154,-2.383783 0,-2.25135 c 0,-1.878209 -1.769061,-3.390268 -3.966505,-3.390268 l -13.10806,0 z" filter="url(#D)"/>
  <path d="m 82.808725,46.625183 c -2.197444,0 -3.966505,1.512059 -3.966505,3.390268 l 0,2.25135 4.896155,2.383783 3.780575,1.854053 3.68761,0 3.780576,-1.854053 4.896154,-2.383783 0,-2.25135 c 0,-1.878209 -1.769061,-3.390268 -3.966505,-3.390268 l -13.10806,0 z" id="Z" fill="#bbb"/>
  <path id="a" d="m 81.1875,47.4375 c -1.592311,0 -2.59375,0.976092 -2.59375,2.03125 l 0,1.4375 4.125,2.03125 3.46875,1.6875 3.125,0 3.46875,-1.6875 4.15625,-2.03125 0,-1.4375 c 0,-1.040377 -1.032689,-2.03125 -2.625,-2.03125 l -13.125,0 z" transform="translate(1.6076602,0.53588673)" fill="url(#F)"/>
 </g>
</svg>
